<?xml version="1.0" encoding="utf-8"?>
<svg xmlns="http://www.w3.org/2000/svg" xmlns:xlink="http://www.w3.org/1999/xlink">
    <symbol viewBox="0 0 128 128" id="LinkedIn">
    <path d="M116 3H12a8.91 8.91 0 00-9 8.8v104.42a8.91 8.91 0 009 8.78h104a8.93 8.93 0 009-8.81V11.77A8.93 8.93 0 00116 3zM39.17 107H21.06V48.73h18.11zm-9-66.21a10.5 10.5 0 1110.49-10.5 10.5 10.5 0 01-10.54 10.48zM107 107H88.89V78.65c0-6.75-.12-15.44-9.41-15.44s-10.87 7.36-10.87 15V107H50.53V48.73h17.36v8h.24c2.42-4.58 8.32-9.41 17.13-9.41C103.6 47.28 107 59.35 107 75z"></path>
    </symbol>

    <symbol viewBox="0 0 128 128" id="GitHub">
    <g ><path fill-rule="evenodd" clip-rule="evenodd" d="M64 5.103c-33.347 0-60.388 27.035-60.388 60.388 0 26.682 17.303 49.317 41.297 57.303 3.017.56 4.125-1.31 4.125-2.905 0-1.44-.056-6.197-.082-11.243-16.8 3.653-20.345-7.125-20.345-7.125-2.747-6.98-6.705-8.836-6.705-8.836-5.48-3.748.413-3.67.413-3.67 6.063.425 9.257 6.223 9.257 6.223 5.386 9.23 14.127 6.562 17.573 5.02.542-3.903 2.107-6.568 3.834-8.076-13.413-1.525-27.514-6.704-27.514-29.843 0-6.593 2.36-11.98 6.223-16.21-.628-1.52-2.695-7.662.584-15.98 0 0 5.07-1.623 16.61 6.19C53.7 35 58.867 34.327 64 34.304c5.13.023 10.3.694 15.127 2.033 11.526-7.813 16.59-6.19 16.59-6.19 3.287 8.317 1.22 14.46.593 15.98 3.872 4.23 6.215 9.617 6.215 16.21 0 23.194-14.127 28.3-27.574 29.796 2.167 1.874 4.097 5.55 4.097 11.183 0 8.08-.07 14.583-.07 16.572 0 1.607 1.088 3.49 4.148 2.897 23.98-7.994 41.263-30.622 41.263-57.294C124.388 32.14 97.35 5.104 64 5.104z"></path><path d="M26.484 91.806c-.133.3-.605.39-1.035.185-.44-.196-.685-.605-.543-.906.13-.31.603-.395 1.04-.188.44.197.69.61.537.91zm2.446 2.729c-.287.267-.85.143-1.232-.28-.396-.42-.47-.983-.177-1.254.298-.266.844-.14 1.24.28.394.426.472.984.17 1.255zM31.312 98.012c-.37.258-.976.017-1.35-.52-.37-.538-.37-1.183.01-1.44.373-.258.97-.025 1.35.507.368.545.368 1.19-.01 1.452zm3.261 3.361c-.33.365-1.036.267-1.552-.23-.527-.487-.674-1.18-.343-1.544.336-.366 1.045-.264 1.564.23.527.486.686 1.18.333 1.543zm4.5 1.951c-.147.473-.825.688-1.51.486-.683-.207-1.13-.76-.99-1.238.14-.477.823-.7 1.512-.485.683.206 1.13.756.988 1.237zm4.943.361c.017.498-.563.91-1.28.92-.723.017-1.308-.387-1.315-.877 0-.503.568-.91 1.29-.924.717-.013 1.306.387 1.306.88zm4.598-.782c.086.485-.413.984-1.126 1.117-.7.13-1.35-.172-1.44-.653-.086-.498.422-.997 1.122-1.126.714-.123 1.354.17 1.444.663zm0 0"></path></g>
    </symbol>

    <symbol viewBox="0 0 20 20" id="Download"  xmlns="http://www.w3.org/2000/svg"><path  d="M9.999 14.549a1.282 1.282 0 0 1-.449-.077 1.106 1.106 0 0 1-.395-.264l-4.146-4.146a.94.94 0 0 1-.294-.7 1.025 1.025 0 0 1 .294-.709 1.019 1.019 0 0 1 .713-.321.944.944 0 0 1 .713.3l2.564 2.567V.999a.968.968 0 0 1 .287-.713.968.968 0 0 1 .713-.287.968.968 0 0 1 .713.287.968.968 0 0 1 .287.713v10.2l2.564-2.564a.952.952 0 0 1 .706-.294 1 1 0 0 1 .719.314 1.044 1.044 0 0 1 .3.7.932.932 0 0 1-.3.7l-4.146 4.146a1.1 1.1 0 0 1-.395.264 1.282 1.282 0 0 1-.448.084Zm-7.589 5.45a2.327 2.327 0 0 1-1.71-.7 2.327 2.327 0 0 1-.7-1.71v-2.615a.968.968 0 0 1 .287-.713.968.968 0 0 1 .713-.287.968.968 0 0 1 .713.287.968.968 0 0 1 .287.713v2.615a.392.392 0 0 0 .128.282.392.392 0 0 0 .282.128h15.179a.392.392 0 0 0 .282-.128.392.392 0 0 0 .128-.282v-2.615a.968.968 0 0 1 .287-.713.968.968 0 0 1 .713-.287.968.968 0 0 1 .713.287.968.968 0 0 1 .287.713v2.615a2.327 2.327 0 0 1-.7 1.71 2.327 2.327 0 0 1-1.71.7Z"/></symbol>

    <symbol xmlns="http://www.w3.org/2000/svg" id="Map"  viewBox="0 -960 960 960"><path d="M480-480q33 0 56.5-23.5T560-560q0-33-23.5-56.5T480-640q-33 0-56.5 23.5T400-560q0 33 23.5 56.5T480-480Zm0 294q122-112 181-203.5T720-552q0-109-69.5-178.5T480-800q-101 0-170.5 69.5T240-552q0 71 59 162.5T480-186Zm0 106Q319-217 239.5-334.5T160-552q0-150 96.5-239T480-880q127 0 223.5 89T800-552q0 100-79.5 217.5T480-80Zm0-480Z"/></symbol>

    <symbol xmlns="http://www.w3.org/2000/svg"  id="Map1"  viewBox="0 0 64 64"><path d="M32 5a21 21 0 0 0-21 21c0 17 21 33 21 33s21-16 21-33A21 21 0 0 0 32 5zm0 31a10 10 0 1 1 10-10 10 10 0 0 1-10 10z"/></symbol>
               
    <symbol xmlns="http://www.w3.org/2000/svg" id="Mail"  viewBox="0 -960 960 960" ><path d="M160-160q-33 0-56.5-23.5T80-240v-480q0-33 23.5-56.5T160-800h640q33 0 56.5 23.5T880-720v480q0 33-23.5 56.5T800-160H160Zm320-280L160-640v400h640v-400L480-440Zm0-80 320-200H160l320 200ZM160-640v-80 480-400Z"/></symbol>  

   <symbol viewBox="0 0 24 24" fill="none" id="Mail1" xmlns="http://www.w3.org/2000/svg"><g id="SVGRepo_bgCarrier" stroke-width="0"></g><g id="SVGRepo_tracerCarrier" stroke-linecap="round" stroke-linejoin="round"></g><g id="SVGRepo_iconCarrier"> <path d="M3 8L8.44992 11.6333C9.73295 12.4886 10.3745 12.9163 11.0678 13.0825C11.6806 13.2293 12.3194 13.2293 12.9322 13.0825C13.6255 12.9163 14.2671 12.4886 15.5501 11.6333L21 8M6.2 19H17.8C18.9201 19 19.4802 19 19.908 18.782C20.2843 18.5903 20.5903 18.2843 20.782 17.908C21 17.4802 21 16.9201 21 15.8V8.2C21 7.0799 21 6.51984 20.782 6.09202C20.5903 5.71569 20.2843 5.40973 19.908 5.21799C19.4802 5 18.9201 5 17.8 5H6.2C5.0799 5 4.51984 5 4.09202 5.21799C3.71569 5.40973 3.40973 5.71569 3.21799 6.09202C3 6.51984 3 7.07989 3 8.2V15.8C3 16.9201 3 17.4802 3.21799 17.908C3.40973 18.2843 3.71569 18.5903 4.09202 18.782C4.51984 19 5.07989 19 6.2 19Z" stroke="#730742" stroke-width="2" stroke-linecap="round" stroke-linejoin="round"></path> </g></symbol> 

  

   <symbol  xmlns="http://www.w3.org/2000/svg" viewBox="0 0 32 32" id="ArrowUp"><path d="m26.71 10.29-10-10a1 1 0 0 0-1.41 0l-10 10 1.41 1.41L15 3.41V32h2V3.41l8.29 8.29z"/></symbol>
          
</svg>